<?xml version="1.0" encoding="UTF-8" standalone="no"?>
<svg
   xmlns:dc="http://purl.org/dc/elements/1.1/"
   xmlns:cc="http://creativecommons.org/ns#"
   xmlns:rdf="http://www.w3.org/1999/02/22-rdf-syntax-ns#"
   xmlns:svg="http://www.w3.org/2000/svg"
   xmlns="http://www.w3.org/2000/svg"
   width="96.782501mm"
   height="96.782501mm"
   viewBox="0 0 96.782501 96.782502"
   version="1.1"
   id="svg8">
  <defs
     id="defs2" />
  <metadata
     id="metadata5">
    <rdf:RDF>
      <cc:Work
         rdf:about="">
        <dc:format>image/svg+xml</dc:format>
        <dc:type
           rdf:resource="http://purl.org/dc/dcmitype/StillImage" />
        <dc:title></dc:title>
      </cc:Work>
    </rdf:RDF>
  </metadata>
  <g
     id="layer1"
     transform="translate(-6.5948138,-1.6775308)">
    <circle
       r="48.412315"
       cy="50.255043"
       cx="55.214462"
       id="path4518"
       style="fill:#ffffff;fill-opacity:1;stroke-width:0.26458332" />
    <g
       id="layer1-5"
       transform="matrix(0.78360129,0,0,0.78360129,0.56841463,0.09129941)">
      <path
         style="fill:#f38181;stroke-width:0.35277778;fill-opacity:1"
         d="m 35.871584,124.73713 c -1.51748,-1.02365 -1.94343,-2.57342 -1.36733,-4.97485 0.23584,-0.9831 3.501799,-11.00141 7.257679,-22.2629 6.25201,-18.74575 6.77827,-20.5127 6.22967,-20.91641 -0.32957,-0.24254 -0.78535,-0.44098 -1.01285,-0.44098 -0.22749,0 -0.83216,-0.41852 -1.34368,-0.93005 -1.19376,-1.19376 -1.28023,-3.53535 -0.19536,-5.2907 0.84531,-1.36774 1.78183,-1.6934 4.20132,-1.46091 l 1.72276,0.16553 4.17941,-12.38152 4.17941,-12.38151 -1.4956,-1.69608 c -8.33229,-9.44921 -2.95186,-24.30559 9.57999,-26.45221 4.74202,-0.81227 10.15775,0.98332 13.72495,4.55052 4.52983,4.52983 6.06411,12.10175 3.51103,17.3275 -0.60237,1.23294 -0.75929,1.32928 -2.12217,1.30297 -1.69699,-0.0328 -5.27417,-1.99451 -5.61921,-3.08161 -0.11662,-0.36743 -0.0165,-1.36646 0.2225,-2.22006 1.56365,-5.58481 -3.73584,-10.88469 -9.32041,-9.3211 -4.39769,1.23127 -6.74576,6.28381 -4.84152,10.41784 0.69918,1.51787 1.58084,2.50583 3.87433,4.34145 1.2514,1.00157 1.45741,1.35747 1.45741,2.51789 0,1.31754 -2.75979,10.37999 -7.02095,23.05503 l -2.11065,6.27826 0.94982,0.34578 c 2.30852,0.84038 2.86713,1.13888 3.60893,1.92849 1.39508,1.485 0.88812,4.84706 -0.90838,6.02417 -1.04385,0.68396 -3.64353,0.75694 -5.24704,0.14728 -0.55619,-0.21146 -1.04688,-0.34035 -1.09042,-0.28641 -0.0435,0.0539 -3.21876,9.54369 -7.05602,21.08834 -3.83726,11.54465 -7.34857,21.73329 -7.8029,22.64142 -0.45433,0.90812 -1.18181,1.90031 -1.61661,2.20486 -1.13881,0.79765 -3.1477,0.69116 -4.528109,-0.24003 z m 63.933589,0.0747 c -0.42447,-0.39545 -1.06737,-1.30826 -1.42866,-2.02847 -0.3613,-0.7202 -3.79598,-10.75508 -7.63263,-22.29973 -3.83665,-11.54465 -7.03062,-21.08921 -7.0977,-21.21013 -0.0671,-0.12092 -1.03403,-0.008 -2.14879,0.25129 -3.24325,0.75392 -5.05816,-0.11568 -5.77167,-2.76545 -0.60963,-2.26396 0.0747,-3.68414 2.26722,-4.705 0.99741,-0.4644 2.0119,-0.84592 2.25444,-0.84782 0.24253,-0.002 0.44097,-0.19601 0.44097,-0.43136 0,-0.23535 -1.905,-6.16116 -4.23333,-13.16846 -3.14529,-9.46599 -4.23132,-13.18684 -4.22549,-14.47695 0.0119,-2.6305 1.45087,-4.03713 4.1141,-4.02161 1.57425,0.009 2.61373,0.74426 3.48093,2.4616 0.34292,0.6791 2.55666,7.0291 4.91943,14.11111 l 4.29593,12.87639 1.96419,-0.11861 c 2.29061,-0.13831 3.22097,0.26746 4.16569,1.81682 1.42986,2.34503 0.53931,5.03157 -1.96852,5.93841 -0.67322,0.24344 -1.22404,0.61069 -1.22404,0.81611 0,0.20543 3.10189,9.65885 6.89309,21.00761 3.791197,11.34876 7.037477,21.36712 7.213937,22.26303 0.17647,0.89591 0.19898,2.08653 0.05,2.64583 -0.6049,2.27127 -4.62842,3.46985 -6.329127,1.88539 z M 67.169483,80.99961 c -1.03121,-1.03121 -1.45487,-3.13867 -1.12017,-5.57221 0.36695,-2.66804 1.03751,-3.274 3.81906,-3.45112 2.2109,-0.14078 2.38055,-0.0947 3.39852,0.92329 1.02468,1.02468 1.07146,1.20184 1.07146,4.05812 0,4.05495 -0.4148,4.57297 -3.8156,4.76513 -2.26875,0.1282 -2.56596,0.0641 -3.35327,-0.72321 z m 0.73511,-45.62655 c -2.76641,-1.50104 -2.67468,-6.3116 0.14819,-7.77136 2.73382,-1.41372 6.13401,0.34304 6.5413,3.37966 0.49036,3.65593 -3.37213,6.19168 -6.68949,4.3917 z m -0.26902,-23.892021 c -2.20692,-1.11346 -2.34338,-7.5058101 -0.19035,-8.9165401 1.08275,-0.70944 4.03926,-0.72279 5.38992,-0.0243 0.58342,0.30169 1.15814,0.91208 1.27716,1.35641 0.28322,1.05726 0.2882,5.70348 0.007,6.4365201 -0.54855,1.42948 -4.52884,2.1342 -6.48364,1.14794 z"
         id="path3778" />
    </g>
  </g>
</svg>
